<mxfile host="Electron" agent="Mozilla/5.0 (Windows NT 10.0; Win64; x64) AppleWebKit/537.36 (KHTML, like Gecko) draw.io/27.0.2 Chrome/134.0.6998.205 Electron/35.3.0 Safari/537.36" version="27.0.2">
  <diagram name="Page-1" id="dmAWUEtqQU-Y0aGdKjTr">
    <mxGraphModel dx="1489" dy="1031" grid="1" gridSize="10" guides="1" tooltips="1" connect="1" arrows="1" fold="1" page="1" pageScale="1" pageWidth="1920" pageHeight="1200" math="0" shadow="0">
      <root>
        <mxCell id="0" />
        <mxCell id="1" parent="0" />
        <mxCell id="Z9ZyORdhY3MhFz2_VxSD-31" value="" style="rounded=1;whiteSpace=wrap;html=1;fillColor=none;dashed=1;dashPattern=8 8;arcSize=7;" parent="1" vertex="1">
          <mxGeometry x="10" y="135" width="670" height="580" as="geometry" />
        </mxCell>
        <mxCell id="Z9ZyORdhY3MhFz2_VxSD-16" value="" style="rounded=1;whiteSpace=wrap;html=1;fillColor=none;dashed=1;dashPattern=8 8;arcSize=7;" parent="1" vertex="1">
          <mxGeometry x="780" y="135" width="860" height="580" as="geometry" />
        </mxCell>
        <mxCell id="Z9ZyORdhY3MhFz2_VxSD-1" value="&lt;font style=&quot;font-size: 29px;&quot;&gt;&lt;b&gt;Integration Model&lt;/b&gt;&lt;/font&gt; (how tables are related)" style="text;html=1;align=center;verticalAlign=middle;whiteSpace=wrap;rounded=0;fontSize=17;" parent="1" vertex="1">
          <mxGeometry x="10" y="10" width="450" height="50" as="geometry" />
        </mxCell>
        <mxCell id="Z9ZyORdhY3MhFz2_VxSD-2" value="crm_cust_info" style="swimlane;fontStyle=0;childLayout=stackLayout;horizontal=1;startSize=30;horizontalStack=0;resizeParent=1;resizeParentMax=0;resizeLast=0;collapsible=1;marginBottom=0;whiteSpace=wrap;html=1;rounded=1;fillColor=#dae8fc;strokeColor=#6c8ebf;fontSize=24;" parent="1" vertex="1">
          <mxGeometry x="830" y="510" width="320" height="110" as="geometry" />
        </mxCell>
        <mxCell id="Z9ZyORdhY3MhFz2_VxSD-3" value="cst_id" style="text;strokeColor=none;fillColor=none;align=center;verticalAlign=middle;spacingLeft=4;spacingRight=4;overflow=hidden;points=[[0,0.5],[1,0.5]];portConstraint=eastwest;rotatable=0;whiteSpace=wrap;html=1;fontSize=24;" parent="Z9ZyORdhY3MhFz2_VxSD-2" vertex="1">
          <mxGeometry y="30" width="320" height="40" as="geometry" />
        </mxCell>
        <mxCell id="Z9ZyORdhY3MhFz2_VxSD-21" value="cst_key" style="text;strokeColor=none;fillColor=none;align=center;verticalAlign=middle;spacingLeft=4;spacingRight=4;overflow=hidden;points=[[0,0.5],[1,0.5]];portConstraint=eastwest;rotatable=0;whiteSpace=wrap;html=1;fontSize=24;" parent="Z9ZyORdhY3MhFz2_VxSD-2" vertex="1">
          <mxGeometry y="70" width="320" height="40" as="geometry" />
        </mxCell>
        <mxCell id="Z9ZyORdhY3MhFz2_VxSD-6" value="&lt;font style=&quot;font-size: 20px;&quot;&gt;Customer Information&lt;/font&gt;" style="text;html=1;align=center;verticalAlign=middle;whiteSpace=wrap;rounded=0;" parent="1" vertex="1">
          <mxGeometry x="830" y="470" width="320" height="40" as="geometry" />
        </mxCell>
        <mxCell id="Z9ZyORdhY3MhFz2_VxSD-7" value="crm_prd_info" style="swimlane;fontStyle=0;childLayout=stackLayout;horizontal=1;startSize=30;horizontalStack=0;resizeParent=1;resizeParentMax=0;resizeLast=0;collapsible=1;marginBottom=0;whiteSpace=wrap;html=1;rounded=1;fillColor=#dae8fc;strokeColor=#6c8ebf;fontSize=24;" parent="1" vertex="1">
          <mxGeometry x="820" y="260" width="320" height="70" as="geometry" />
        </mxCell>
        <mxCell id="Z9ZyORdhY3MhFz2_VxSD-8" value="prd_key" style="text;strokeColor=none;fillColor=none;align=center;verticalAlign=middle;spacingLeft=4;spacingRight=4;overflow=hidden;points=[[0,0.5],[1,0.5]];portConstraint=eastwest;rotatable=0;whiteSpace=wrap;html=1;fontSize=24;" parent="Z9ZyORdhY3MhFz2_VxSD-7" vertex="1">
          <mxGeometry y="30" width="320" height="40" as="geometry" />
        </mxCell>
        <mxCell id="Z9ZyORdhY3MhFz2_VxSD-9" value="&lt;font style=&quot;font-size: 20px;&quot;&gt;Current &amp;amp; History Product Information&lt;/font&gt;" style="text;html=1;align=center;verticalAlign=middle;whiteSpace=wrap;rounded=0;" parent="1" vertex="1">
          <mxGeometry x="780" y="200" width="390" height="60" as="geometry" />
        </mxCell>
        <mxCell id="Z9ZyORdhY3MhFz2_VxSD-10" value="crm_sales_details" style="swimlane;fontStyle=0;childLayout=stackLayout;horizontal=1;startSize=30;horizontalStack=0;resizeParent=1;resizeParentMax=0;resizeLast=0;collapsible=1;marginBottom=0;whiteSpace=wrap;html=1;rounded=1;fillColor=#dae8fc;strokeColor=#6c8ebf;fontSize=24;" parent="1" vertex="1">
          <mxGeometry x="1270" y="370" width="320" height="110" as="geometry" />
        </mxCell>
        <mxCell id="Z9ZyORdhY3MhFz2_VxSD-11" value="sls_&lt;span style=&quot;background-color: transparent; color: light-dark(rgb(0, 0, 0), rgb(255, 255, 255));&quot;&gt;prd_key&lt;/span&gt;" style="text;strokeColor=none;fillColor=none;align=center;verticalAlign=middle;spacingLeft=4;spacingRight=4;overflow=hidden;points=[[0,0.5],[1,0.5]];portConstraint=eastwest;rotatable=0;whiteSpace=wrap;html=1;fontSize=24;" parent="Z9ZyORdhY3MhFz2_VxSD-10" vertex="1">
          <mxGeometry y="30" width="320" height="40" as="geometry" />
        </mxCell>
        <mxCell id="Z9ZyORdhY3MhFz2_VxSD-13" value="sls_cst_id" style="text;strokeColor=none;fillColor=none;align=center;verticalAlign=middle;spacingLeft=4;spacingRight=4;overflow=hidden;points=[[0,0.5],[1,0.5]];portConstraint=eastwest;rotatable=0;whiteSpace=wrap;html=1;fontSize=24;" parent="Z9ZyORdhY3MhFz2_VxSD-10" vertex="1">
          <mxGeometry y="70" width="320" height="40" as="geometry" />
        </mxCell>
        <mxCell id="Z9ZyORdhY3MhFz2_VxSD-12" value="&lt;font style=&quot;font-size: 20px;&quot;&gt;Transactional Records About Sales and Orders&lt;/font&gt;" style="text;html=1;align=center;verticalAlign=middle;whiteSpace=wrap;rounded=0;" parent="1" vertex="1">
          <mxGeometry x="1230" y="310" width="390" height="60" as="geometry" />
        </mxCell>
        <mxCell id="Z9ZyORdhY3MhFz2_VxSD-14" style="edgeStyle=orthogonalEdgeStyle;rounded=0;orthogonalLoop=1;jettySize=auto;html=1;exitX=1;exitY=0.5;exitDx=0;exitDy=0;" parent="1" source="Z9ZyORdhY3MhFz2_VxSD-3" target="Z9ZyORdhY3MhFz2_VxSD-13" edge="1">
          <mxGeometry relative="1" as="geometry" />
        </mxCell>
        <mxCell id="Z9ZyORdhY3MhFz2_VxSD-15" style="edgeStyle=orthogonalEdgeStyle;rounded=0;orthogonalLoop=1;jettySize=auto;html=1;exitX=1;exitY=0.5;exitDx=0;exitDy=0;" parent="1" source="Z9ZyORdhY3MhFz2_VxSD-8" target="Z9ZyORdhY3MhFz2_VxSD-11" edge="1">
          <mxGeometry relative="1" as="geometry" />
        </mxCell>
        <mxCell id="Z9ZyORdhY3MhFz2_VxSD-17" value="&lt;font style=&quot;font-size: 35px;&quot;&gt;&lt;b&gt;CRM&lt;/b&gt;&lt;/font&gt;" style="rounded=1;whiteSpace=wrap;html=1;fillColor=#dae8fc;strokeColor=#6c8ebf;" parent="1" vertex="1">
          <mxGeometry x="1140" y="100" width="150" height="60" as="geometry" />
        </mxCell>
        <mxCell id="Z9ZyORdhY3MhFz2_VxSD-18" value="erp_cust_az12" style="swimlane;fontStyle=0;childLayout=stackLayout;horizontal=1;startSize=30;horizontalStack=0;resizeParent=1;resizeParentMax=0;resizeLast=0;collapsible=1;marginBottom=0;whiteSpace=wrap;html=1;rounded=1;fillColor=#ffe6cc;strokeColor=#d79b00;fontSize=24;" parent="1" vertex="1">
          <mxGeometry x="135" y="620" width="320" height="70" as="geometry" />
        </mxCell>
        <mxCell id="Z9ZyORdhY3MhFz2_VxSD-19" value="cid" style="text;strokeColor=none;fillColor=none;align=center;verticalAlign=middle;spacingLeft=4;spacingRight=4;overflow=hidden;points=[[0,0.5],[1,0.5]];portConstraint=eastwest;rotatable=0;whiteSpace=wrap;html=1;fontSize=24;" parent="Z9ZyORdhY3MhFz2_VxSD-18" vertex="1">
          <mxGeometry y="30" width="320" height="40" as="geometry" />
        </mxCell>
        <mxCell id="Z9ZyORdhY3MhFz2_VxSD-20" value="&lt;font style=&quot;font-size: 20px;&quot;&gt;Extra Customer Information ( Birthdate)&lt;/font&gt;" style="text;html=1;align=center;verticalAlign=middle;whiteSpace=wrap;rounded=0;" parent="1" vertex="1">
          <mxGeometry x="100" y="580" width="390" height="40" as="geometry" />
        </mxCell>
        <mxCell id="Z9ZyORdhY3MhFz2_VxSD-22" style="edgeStyle=orthogonalEdgeStyle;rounded=0;orthogonalLoop=1;jettySize=auto;html=1;exitX=1;exitY=0.5;exitDx=0;exitDy=0;" parent="1" source="Z9ZyORdhY3MhFz2_VxSD-19" target="Z9ZyORdhY3MhFz2_VxSD-21" edge="1">
          <mxGeometry relative="1" as="geometry" />
        </mxCell>
        <mxCell id="Z9ZyORdhY3MhFz2_VxSD-23" value="erp_loc_a101" style="swimlane;fontStyle=0;childLayout=stackLayout;horizontal=1;startSize=30;horizontalStack=0;resizeParent=1;resizeParentMax=0;resizeLast=0;collapsible=1;marginBottom=0;whiteSpace=wrap;html=1;rounded=1;fillColor=#ffe6cc;strokeColor=#d79b00;fontSize=24;" parent="1" vertex="1">
          <mxGeometry x="125" y="470" width="320" height="70" as="geometry" />
        </mxCell>
        <mxCell id="Z9ZyORdhY3MhFz2_VxSD-24" value="cid" style="text;strokeColor=none;fillColor=none;align=center;verticalAlign=middle;spacingLeft=4;spacingRight=4;overflow=hidden;points=[[0,0.5],[1,0.5]];portConstraint=eastwest;rotatable=0;whiteSpace=wrap;html=1;fontSize=24;" parent="Z9ZyORdhY3MhFz2_VxSD-23" vertex="1">
          <mxGeometry y="30" width="320" height="40" as="geometry" />
        </mxCell>
        <mxCell id="Z9ZyORdhY3MhFz2_VxSD-25" value="&lt;font style=&quot;font-size: 20px;&quot;&gt;Location of Customers (Country)&lt;/font&gt;" style="text;html=1;align=center;verticalAlign=middle;whiteSpace=wrap;rounded=0;" parent="1" vertex="1">
          <mxGeometry x="90" y="430" width="390" height="40" as="geometry" />
        </mxCell>
        <mxCell id="Z9ZyORdhY3MhFz2_VxSD-26" style="edgeStyle=orthogonalEdgeStyle;rounded=0;orthogonalLoop=1;jettySize=auto;html=1;" parent="1" source="Z9ZyORdhY3MhFz2_VxSD-24" target="Z9ZyORdhY3MhFz2_VxSD-21" edge="1">
          <mxGeometry relative="1" as="geometry" />
        </mxCell>
        <mxCell id="Z9ZyORdhY3MhFz2_VxSD-27" value="erp_px_cat_g1v2" style="swimlane;fontStyle=0;childLayout=stackLayout;horizontal=1;startSize=30;horizontalStack=0;resizeParent=1;resizeParentMax=0;resizeLast=0;collapsible=1;marginBottom=0;whiteSpace=wrap;html=1;rounded=1;fillColor=#ffe6cc;strokeColor=#d79b00;fontSize=24;" parent="1" vertex="1">
          <mxGeometry x="135" y="230" width="320" height="70" as="geometry" />
        </mxCell>
        <mxCell id="Z9ZyORdhY3MhFz2_VxSD-28" value="id" style="text;strokeColor=none;fillColor=none;align=center;verticalAlign=middle;spacingLeft=4;spacingRight=4;overflow=hidden;points=[[0,0.5],[1,0.5]];portConstraint=eastwest;rotatable=0;whiteSpace=wrap;html=1;fontSize=24;" parent="Z9ZyORdhY3MhFz2_VxSD-27" vertex="1">
          <mxGeometry y="30" width="320" height="40" as="geometry" />
        </mxCell>
        <mxCell id="Z9ZyORdhY3MhFz2_VxSD-29" value="&lt;font style=&quot;font-size: 20px;&quot;&gt;Product Categories &amp;amp; Subcategories&lt;/font&gt;" style="text;html=1;align=center;verticalAlign=middle;whiteSpace=wrap;rounded=0;" parent="1" vertex="1">
          <mxGeometry x="100" y="180" width="390" height="40" as="geometry" />
        </mxCell>
        <mxCell id="Z9ZyORdhY3MhFz2_VxSD-30" style="edgeStyle=orthogonalEdgeStyle;rounded=0;orthogonalLoop=1;jettySize=auto;html=1;entryX=0;entryY=0.5;entryDx=0;entryDy=0;" parent="1" source="Z9ZyORdhY3MhFz2_VxSD-28" target="Z9ZyORdhY3MhFz2_VxSD-8" edge="1">
          <mxGeometry relative="1" as="geometry">
            <mxPoint x="820" y="327" as="targetPoint" />
          </mxGeometry>
        </mxCell>
        <mxCell id="Z9ZyORdhY3MhFz2_VxSD-32" value="&lt;font style=&quot;font-size: 35px;&quot;&gt;&lt;b&gt;ERP&lt;/b&gt;&lt;/font&gt;" style="rounded=1;whiteSpace=wrap;html=1;fillColor=#ffe6cc;strokeColor=#d79b00;" parent="1" vertex="1">
          <mxGeometry x="250" y="110" width="150" height="60" as="geometry" />
        </mxCell>
        <mxCell id="bFzNw1l3SIQdOpPHD0Zo-1" value="&lt;font style=&quot;font-size: 21px;&quot;&gt;PRODUCT&lt;/font&gt;" style="text;html=1;strokeColor=#b85450;fillColor=#f8cecc;align=center;verticalAlign=middle;whiteSpace=wrap;overflow=hidden;fontSize=24;fontStyle=1" vertex="1" parent="1">
          <mxGeometry x="820" y="320" width="320" height="30" as="geometry" />
        </mxCell>
        <mxCell id="bFzNw1l3SIQdOpPHD0Zo-2" value="&lt;font style=&quot;font-size: 21px;&quot;&gt;PRODUCT&lt;/font&gt;" style="text;html=1;strokeColor=#b85450;fillColor=#f8cecc;align=center;verticalAlign=middle;whiteSpace=wrap;overflow=hidden;fontSize=24;fontStyle=1" vertex="1" parent="1">
          <mxGeometry x="135" y="290" width="320" height="30" as="geometry" />
        </mxCell>
        <mxCell id="bFzNw1l3SIQdOpPHD0Zo-3" value="&lt;font style=&quot;font-size: 21px;&quot;&gt;CUSTOMER&lt;/font&gt;&lt;span style=&quot;color: rgba(0, 0, 0, 0); font-family: monospace; font-size: 0px; font-weight: 400; text-align: start; text-wrap-mode: nowrap;&quot;&gt;%3CmxGraphModel%3E%3Croot%3E%3CmxCell%20id%3D%220%22%2F%3E%3CmxCell%20id%3D%221%22%20parent%3D%220%22%2F%3E%3CmxCell%20id%3D%222%22%20value%3D%22%26lt%3Bfont%20style%3D%26quot%3Bfont-size%3A%2021px%3B%26quot%3B%26gt%3BPRODUCT%26lt%3B%2Ffont%26gt%3B%22%20style%3D%22text%3Bhtml%3D1%3BstrokeColor%3D%23b85450%3BfillColor%3D%23f8cecc%3Balign%3Dcenter%3BverticalAlign%3Dmiddle%3BwhiteSpace%3Dwrap%3Boverflow%3Dhidden%3BfontSize%3D24%3BfontStyle%3D1%22%20vertex%3D%221%22%20parent%3D%221%22%3E%3CmxGeometry%20x%3D%22135%22%20y%3D%22290%22%20width%3D%22320%22%20height%3D%2230%22%20as%3D%22geometry%22%2F%3E%3C%2FmxCell%3E%3C%2Froot%3E%3C%2FmxGraphModel%3E&lt;/span&gt;" style="text;html=1;strokeColor=#82b366;fillColor=#d5e8d4;align=center;verticalAlign=middle;whiteSpace=wrap;overflow=hidden;fontSize=24;fontStyle=1" vertex="1" parent="1">
          <mxGeometry x="830" y="610" width="320" height="30" as="geometry" />
        </mxCell>
        <mxCell id="bFzNw1l3SIQdOpPHD0Zo-4" value="&lt;font style=&quot;font-size: 21px;&quot;&gt;CUSTOMER&lt;/font&gt;&lt;span style=&quot;color: rgba(0, 0, 0, 0); font-family: monospace; font-size: 0px; font-weight: 400; text-align: start; text-wrap-mode: nowrap;&quot;&gt;%3CmxGraphModel%3E%3Croot%3E%3CmxCell%20id%3D%220%22%2F%3E%3CmxCell%20id%3D%221%22%20parent%3D%220%22%2F%3E%3CmxCell%20id%3D%222%22%20value%3D%22%26lt%3Bfont%20style%3D%26quot%3Bfont-size%3A%2021px%3B%26quot%3B%26gt%3BPRODUCT%26lt%3B%2Ffont%26gt%3B%22%20style%3D%22text%3Bhtml%3D1%3BstrokeColor%3D%23b85450%3BfillColor%3D%23f8cecc%3Balign%3Dcenter%3BverticalAlign%3Dmiddle%3BwhiteSpace%3Dwrap%3Boverflow%3Dhidden%3BfontSize%3D24%3BfontStyle%3D1%22%20vertex%3D%221%22%20parent%3D%221%22%3E%3CmxGeometry%20x%3D%22135%22%20y%3D%22290%22%20width%3D%22320%22%20height%3D%2230%22%20as%3D%22geometry%22%2F%3E%3C%2FmxCell%3E%3C%2Froot%3E%3C%2FmxGraphModel%3E&lt;/span&gt;" style="text;html=1;strokeColor=#82b366;fillColor=#d5e8d4;align=center;verticalAlign=middle;whiteSpace=wrap;overflow=hidden;fontSize=24;fontStyle=1" vertex="1" parent="1">
          <mxGeometry x="135" y="680" width="320" height="30" as="geometry" />
        </mxCell>
        <mxCell id="bFzNw1l3SIQdOpPHD0Zo-5" value="&lt;font style=&quot;font-size: 21px;&quot;&gt;CUSTOMER&lt;/font&gt;&lt;span style=&quot;color: rgba(0, 0, 0, 0); font-family: monospace; font-size: 0px; font-weight: 400; text-align: start; text-wrap-mode: nowrap;&quot;&gt;%3CmxGraphModel%3E%3Croot%3E%3CmxCell%20id%3D%220%22%2F%3E%3CmxCell%20id%3D%221%22%20parent%3D%220%22%2F%3E%3CmxCell%20id%3D%222%22%20value%3D%22%26lt%3Bfont%20style%3D%26quot%3Bfont-size%3A%2021px%3B%26quot%3B%26gt%3BPRODUCT%26lt%3B%2Ffont%26gt%3B%22%20style%3D%22text%3Bhtml%3D1%3BstrokeColor%3D%23b85450%3BfillColor%3D%23f8cecc%3Balign%3Dcenter%3BverticalAlign%3Dmiddle%3BwhiteSpace%3Dwrap%3Boverflow%3Dhidden%3BfontSize%3D24%3BfontStyle%3D1%22%20vertex%3D%221%22%20parent%3D%221%22%3E%3CmxGeometry%20x%3D%22135%22%20y%3D%22290%22%20width%3D%22320%22%20height%3D%2230%22%20as%3D%22geometry%22%2F%3E%3C%2FmxCell%3E%3C%2Froot%3E%3C%2FmxGraphModel%3E&lt;/span&gt;" style="text;html=1;strokeColor=#82b366;fillColor=#d5e8d4;align=center;verticalAlign=middle;whiteSpace=wrap;overflow=hidden;fontSize=24;fontStyle=1" vertex="1" parent="1">
          <mxGeometry x="125" y="530" width="320" height="30" as="geometry" />
        </mxCell>
        <mxCell id="bFzNw1l3SIQdOpPHD0Zo-6" value="&lt;span style=&quot;font-size: 21px;&quot;&gt;SALES&lt;/span&gt;" style="text;html=1;strokeColor=#9673a6;fillColor=#e1d5e7;align=center;verticalAlign=middle;whiteSpace=wrap;overflow=hidden;fontSize=24;fontStyle=1;" vertex="1" parent="1">
          <mxGeometry x="1270" y="470" width="320" height="30" as="geometry" />
        </mxCell>
      </root>
    </mxGraphModel>
  </diagram>
</mxfile>
